<svg width="39" height="39" viewBox="0 0 39 39" fill="none" xmlns="http://www.w3.org/2000/svg">
<g clip-path="url(#clip0_442_25)">
<mask id="mask0_442_25" style="mask-type:luminance" maskUnits="userSpaceOnUse" x="0" y="6" width="39" height="26">
<path d="M38.2453 6H-6.10352e-05V31.6507H38.2453V6Z" fill="white"/>
</mask>
<g mask="url(#mask0_442_25)">
<path fill-rule="evenodd" clip-rule="evenodd" d="M6.33734 6H6.41595C6.80262 6.444 7.2213 6.85468 7.6413 7.26668C7.87863 7.49868 8.11462 7.73204 8.34662 7.9707L12.724 12.3467V12.4267C11.668 13.4773 10.6146 14.5334 9.5613 15.5894C8.49997 16.652 7.44 17.7147 6.376 18.7734C5.312 17.7134 4.25068 16.652 3.18801 15.5894C2.12668 14.528 1.06394 13.4653 -6.10352e-05 12.4067C0.0746056 12.2653 0.194667 12.156 0.313334 12.0467C0.369334 11.996 0.425296 11.9454 0.47463 11.8907C1.25596 11.1027 2.03996 10.32 2.8253 9.53735V9.53601C4.00263 8.36268 5.17867 7.188 6.33734 6ZM25.5866 12.2654C26.2013 11.6654 26.8079 11.056 27.4133 10.4467C27.8386 10.0187 28.2626 9.59201 28.6906 9.16801C29.0653 8.79068 29.4427 8.41601 29.82 8.04134C30.4987 7.36667 31.1773 6.69333 31.8386 6H31.9186C32.1706 6.30267 32.4507 6.57733 32.7307 6.85067C32.8907 7.008 33.0507 7.16537 33.2053 7.3267L34.804 8.92533L38.008 12.1293C38.0307 12.1546 38.056 12.1787 38.084 12.204C38.152 12.2667 38.224 12.3333 38.2453 12.4267C37.2053 13.4373 36.1826 14.4667 35.1586 15.496C34.0666 16.5947 32.9733 17.6947 31.8587 18.7734L25.7693 12.684C25.74 12.6507 25.708 12.6213 25.6747 12.5907C25.6427 12.5613 25.6106 12.532 25.5826 12.5C25.556 12.5293 25.5253 12.556 25.496 12.584C25.4746 12.604 25.4533 12.624 25.4333 12.644C24.4133 13.6587 23.396 14.676 22.38 15.692L22.3786 15.6934C21.3519 16.72 20.324 17.748 19.2946 18.7734C18.344 17.836 17.4013 16.8906 16.4586 15.9453C15.2799 14.764 14.1013 13.5827 12.908 12.416C14.0053 11.272 15.1333 10.1494 16.2599 9.02669C17.2693 8.02269 18.2773 7.02 19.2639 6H19.3439C19.4026 6.08933 19.4626 6.16801 19.5413 6.24801C20.3613 7.06001 21.1773 7.87737 21.9933 8.6947C23.1853 9.88937 24.3773 11.084 25.5866 12.2654ZM15.0573 23.096C14.36 23.7934 13.6627 24.4894 12.9667 25.1854C12.9573 25.2054 12.9466 25.2294 12.9373 25.2547C12.9279 25.2787 12.9173 25.3041 12.908 25.3241C13.9893 26.3907 15.0599 27.464 16.1319 28.5374C16.4826 28.8894 16.8333 29.24 17.1853 29.5907C17.4787 29.872 17.764 30.1627 18.0506 30.4547C18.452 30.8613 18.8533 31.2694 19.2747 31.6507C19.5773 31.3841 19.8693 31.084 20.1613 30.7853C20.356 30.5853 20.5506 30.3853 20.7493 30.1947C21.516 29.4333 22.2826 28.668 23.048 27.9014C23.8066 27.1427 24.5653 26.384 25.324 25.6307C25.3613 25.5867 25.404 25.5467 25.4466 25.5067C25.5266 25.432 25.6053 25.3574 25.6507 25.2547C23.532 23.1654 21.4319 21.056 19.3333 18.9467L19.244 18.908C17.852 20.3067 16.4533 21.7027 15.0573 23.096Z" fill="white"/>
</g>
</g>
<defs>
<clipPath id="clip0_442_25">
<rect width="38.2453" height="38.25" fill="white"/>
</clipPath>
</defs>
</svg>
