<svg width="2400" height="2400" viewBox="0 0 2400 2400" fill="none" xmlns="http://www.w3.org/2000/svg">
<circle cx="1200" cy="1200" r="1200" fill="#141010"/>
<circle cx="1009.52" cy="1628.57" r="200" fill="#F9F4F4"/>
<path d="M457.24 1167.05C422.954 1167.05 394.497 1162.25 371.869 1152.65C349.24 1142.7 332.097 1129.85 320.44 1114.08C308.783 1098.3 302.611 1081.5 301.926 1063.68C301.926 1060.93 302.954 1058.53 305.011 1056.48C307.411 1054.08 310.154 1052.88 313.24 1052.88H378.04C382.84 1052.88 386.44 1053.73 388.84 1055.45C391.583 1057.16 393.983 1059.39 396.04 1062.13C398.783 1067.28 402.554 1072.25 407.354 1077.05C412.497 1081.85 419.012 1085.79 426.897 1088.88C435.126 1091.62 445.24 1092.99 457.24 1092.99C477.126 1092.99 492.04 1089.9 501.983 1083.73C512.269 1077.56 517.412 1069.16 517.412 1058.53C517.412 1050.99 514.669 1044.82 509.183 1040.02C503.697 1034.88 494.783 1030.42 482.44 1026.65C470.44 1022.53 454.326 1018.42 434.097 1014.3C408.04 1008.82 385.754 1001.79 367.24 993.219C349.069 984.305 335.183 972.819 325.583 958.762C315.983 944.362 311.183 926.533 311.183 905.276C311.183 884.362 317.011 865.676 328.669 849.219C340.669 832.762 357.297 819.905 378.554 810.648C399.812 801.39 425.012 796.762 454.154 796.762C477.812 796.762 498.554 799.848 516.383 806.019C534.554 812.19 549.812 820.419 562.154 830.705C574.497 840.99 583.754 851.962 589.926 863.619C596.44 874.933 599.869 886.076 600.212 897.048C600.212 899.79 599.183 902.362 597.126 904.762C595.069 906.819 592.497 907.848 589.412 907.848H521.526C517.754 907.848 514.497 907.162 511.754 905.79C509.011 904.419 506.612 902.19 504.554 899.105C502.497 891.562 497.012 885.048 488.097 879.562C479.526 873.733 468.212 870.819 454.154 870.819C439.069 870.819 427.24 873.562 418.669 879.048C410.44 884.19 406.326 892.248 406.326 903.219C406.326 910.076 408.554 916.076 413.011 921.219C417.811 926.362 425.526 930.819 436.154 934.59C447.126 938.362 462.04 942.305 480.897 946.419C512.097 952.248 537.297 959.619 556.497 968.533C575.697 977.105 589.754 988.419 598.669 1002.48C607.583 1016.19 612.04 1033.5 612.04 1054.42C612.04 1077.73 605.354 1097.96 591.983 1115.1C578.954 1131.9 560.783 1144.76 537.469 1153.68C514.154 1162.59 487.412 1167.05 457.24 1167.05Z" fill="#FFBD59"/>
<path d="M782.924 1161.9C779.152 1161.9 776.066 1160.7 773.666 1158.3C771.266 1155.9 770.066 1152.82 770.066 1149.05V882.648H678.524C674.752 882.648 671.666 881.448 669.266 879.048C666.866 876.305 665.666 873.219 665.666 869.79V814.762C665.666 810.99 666.866 807.905 669.266 805.505C671.666 803.105 674.752 801.905 678.524 801.905H955.209C958.981 801.905 962.066 803.105 964.466 805.505C966.866 807.905 968.066 810.99 968.066 814.762V869.79C968.066 873.219 966.866 876.305 964.466 879.048C962.066 881.448 958.981 882.648 955.209 882.648H863.666V1149.05C863.666 1152.82 862.466 1155.9 860.066 1158.3C857.666 1160.7 854.581 1161.9 850.809 1161.9H782.924Z" fill="#FFBD59"/>
<path d="M1058.52 1161.9C1054.75 1161.9 1051.66 1160.7 1049.26 1158.3C1046.86 1155.9 1045.66 1152.82 1045.66 1149.05V814.762C1045.66 810.99 1046.86 807.905 1049.26 805.505C1051.66 803.105 1054.75 801.905 1058.52 801.905H1198.41C1242.63 801.905 1277.43 812.19 1302.81 832.762C1328.52 852.99 1341.38 881.79 1341.38 919.162C1341.38 943.505 1335.38 964.076 1323.38 980.876C1311.72 997.676 1296.29 1010.36 1277.09 1018.93L1348.06 1145.45C1349.09 1147.5 1349.61 1149.39 1349.61 1151.1C1349.61 1153.85 1348.41 1156.42 1346.01 1158.82C1343.95 1160.88 1341.38 1161.9 1338.29 1161.9H1270.41C1263.89 1161.9 1259.09 1160.36 1256.01 1157.28C1252.92 1153.85 1250.69 1150.76 1249.32 1148.02L1190.69 1034.88H1137.72V1149.05C1137.72 1152.82 1136.52 1155.9 1134.12 1158.3C1131.72 1160.7 1128.63 1161.9 1124.86 1161.9H1058.52ZM1137.72 962.362H1197.38C1213.49 962.362 1225.49 958.419 1233.38 950.533C1241.61 942.648 1245.72 931.848 1245.72 918.133C1245.72 904.762 1241.78 893.962 1233.89 885.733C1226.35 877.505 1214.18 873.39 1197.38 873.39H1137.72V962.362Z" fill="#FFBD59"/>
<path d="M1411.53 1161.9C1408.79 1161.9 1406.22 1160.88 1403.82 1158.82C1401.76 1156.42 1400.73 1153.85 1400.73 1151.1C1400.73 1149.39 1400.9 1147.85 1401.24 1146.48L1522.1 816.305C1523.13 812.533 1525.19 809.276 1528.27 806.533C1531.7 803.448 1536.33 801.905 1542.16 801.905H1618.27C1624.1 801.905 1628.56 803.448 1631.64 806.533C1635.07 809.276 1637.3 812.533 1638.33 816.305L1758.67 1146.48C1759.36 1147.85 1759.7 1149.39 1759.7 1151.1C1759.7 1153.85 1758.5 1156.42 1756.1 1158.82C1754.04 1160.88 1751.47 1161.9 1748.39 1161.9H1685.13C1679.99 1161.9 1676.04 1160.7 1673.3 1158.3C1670.9 1155.56 1669.36 1153.16 1668.67 1151.1L1648.62 1098.65H1511.3L1491.76 1151.1C1491.07 1153.16 1489.53 1155.56 1487.13 1158.3C1484.73 1160.7 1480.62 1161.9 1474.79 1161.9H1411.53ZM1532.39 1024.59H1628.04L1579.7 888.819L1532.39 1024.59Z" fill="#FFBD59"/>
<path d="M1894.84 1161.9C1891.41 1161.9 1888.32 1160.7 1885.58 1158.3C1883.18 1155.9 1881.98 1152.82 1881.98 1149.05V1038.48L1762.67 818.362C1762.32 817.333 1761.98 816.476 1761.64 815.79C1761.29 814.762 1761.12 813.733 1761.12 812.705C1761.12 809.962 1762.15 807.562 1764.21 805.505C1766.61 803.105 1769.35 801.905 1772.44 801.905H1836.72C1841.87 801.905 1845.81 803.276 1848.55 806.019C1851.64 808.419 1853.52 810.648 1854.21 812.705L1928.27 945.39L2002.32 812.705C2003.35 810.648 2005.24 808.419 2007.98 806.019C2011.07 803.276 2015.18 801.905 2020.32 801.905H2084.61C2087.69 801.905 2090.27 803.105 2092.32 805.505C2094.38 807.562 2095.41 809.962 2095.41 812.705C2095.41 813.733 2095.24 814.762 2094.89 815.79C2094.89 816.476 2094.72 817.333 2094.38 818.362L1974.55 1038.48V1149.05C1974.55 1152.82 1973.35 1155.9 1970.95 1158.3C1968.55 1160.7 1965.47 1161.9 1961.69 1161.9H1894.84Z" fill="#FFBD59"/>
<path d="M615.921 1586.1C583.35 1586.1 555.236 1580.78 531.579 1570.15C508.264 1559.18 490.093 1543.41 477.064 1522.84C464.379 1501.92 457.35 1476.55 455.979 1446.72C455.636 1431.98 455.464 1416.38 455.464 1399.92C455.464 1383.12 455.636 1367.18 455.979 1352.1C457.35 1322.95 464.55 1298.27 477.579 1278.04C490.607 1257.81 508.95 1242.38 532.607 1231.75C556.264 1221.12 584.036 1215.81 615.921 1215.81C641.636 1215.81 664.436 1219.07 684.321 1225.58C704.207 1231.75 720.836 1240.15 734.207 1250.78C747.921 1261.41 758.207 1273.07 765.064 1285.75C772.264 1298.44 776.036 1310.95 776.378 1323.3C776.721 1326.38 775.693 1328.95 773.293 1331.01C771.236 1333.07 768.664 1334.1 765.579 1334.1H690.493C686.721 1334.1 683.807 1333.58 681.75 1332.55C680.036 1331.18 678.493 1329.3 677.121 1326.9C674.721 1321.75 671.121 1316.44 666.321 1310.95C661.864 1305.12 655.521 1300.15 647.293 1296.04C639.407 1291.92 628.95 1289.87 615.921 1289.87C596.378 1289.87 580.95 1295.01 569.636 1305.3C558.664 1315.58 552.664 1332.04 551.636 1354.67C550.607 1384.15 550.607 1413.98 551.636 1444.15C552.664 1468.15 559.007 1485.47 570.664 1496.1C582.321 1506.72 597.75 1512.04 616.95 1512.04C629.979 1512.04 641.464 1509.81 651.407 1505.35C661.693 1500.9 669.75 1494.04 675.578 1484.78C681.407 1475.18 684.321 1463.01 684.321 1448.27V1438.5H635.978C632.207 1438.5 628.95 1437.3 626.207 1434.9C623.807 1432.15 622.607 1428.9 622.607 1425.12V1387.07C622.607 1383.3 623.807 1380.21 626.207 1377.81C628.95 1375.07 632.207 1373.7 635.978 1373.7H765.579C769.35 1373.7 772.436 1375.07 774.836 1377.81C777.236 1380.21 778.436 1383.3 778.436 1387.07V1445.7C778.436 1475.18 771.75 1500.38 758.379 1521.3C745.007 1542.21 725.978 1558.32 701.293 1569.64C676.95 1580.61 648.493 1586.1 615.921 1586.1Z" fill="#FFBD59"/>
<path d="M1302.18 1580.95C1298.41 1580.95 1295.33 1579.75 1292.93 1577.35C1290.53 1574.95 1289.33 1571.87 1289.33 1568.1V1233.81C1289.33 1230.04 1290.53 1226.95 1292.93 1224.55C1295.33 1222.15 1298.41 1220.95 1302.18 1220.95H1370.07C1373.5 1220.95 1376.41 1222.15 1378.81 1224.55C1381.55 1226.95 1382.93 1230.04 1382.93 1233.81V1503.3H1538.24C1542.01 1503.3 1545.1 1504.67 1547.5 1507.41C1550.24 1509.81 1551.61 1512.9 1551.61 1516.67V1568.1C1551.61 1571.87 1550.24 1574.95 1547.5 1577.35C1545.1 1579.75 1542.01 1580.95 1538.24 1580.95H1302.18Z" fill="#FFBD59"/>
<path d="M1639.9 1580.95C1636.13 1580.95 1633.05 1579.75 1630.65 1577.35C1628.25 1574.95 1627.05 1571.87 1627.05 1568.1V1233.81C1627.05 1230.04 1628.25 1226.95 1630.65 1224.55C1633.05 1222.15 1636.13 1220.95 1639.9 1220.95H1773.62C1807.22 1220.95 1835.85 1226.44 1859.5 1237.41C1883.16 1248.04 1901.33 1263.81 1914.02 1284.72C1926.7 1305.3 1933.56 1330.84 1934.59 1361.35C1934.93 1376.44 1935.1 1389.64 1935.1 1400.95C1935.1 1412.27 1934.93 1425.3 1934.59 1440.04C1933.22 1471.92 1926.36 1498.32 1914.02 1519.24C1902.02 1540.15 1884.36 1555.75 1861.05 1566.04C1838.08 1575.98 1809.79 1580.95 1776.19 1580.95H1639.9ZM1719.1 1506.9H1773.62C1788.36 1506.9 1800.53 1504.67 1810.13 1500.21C1820.08 1495.41 1827.45 1488.04 1832.25 1478.1C1837.39 1468.15 1840.13 1455.12 1840.48 1439.01C1841.16 1429.07 1841.5 1420.15 1841.5 1412.27C1841.85 1404.38 1841.85 1396.5 1841.5 1388.61C1841.5 1380.72 1841.16 1371.98 1840.48 1362.38C1839.79 1339.07 1833.62 1322.1 1821.96 1311.47C1810.65 1300.5 1793.68 1295.01 1771.05 1295.01H1719.1V1506.9Z" fill="#FFBD59"/>
</svg>
